<svg width="41" height="40" viewBox="0 0 41 40" fill="none" xmlns="http://www.w3.org/2000/svg">
<circle cx="20.0293" cy="20" r="20" fill="#0057FF"/>
<path fill-rule="evenodd" clip-rule="evenodd" d="M20.0293 28.6667L21.1892 26.4805H21.188C28.1949 25.9302 33.6959 20.6436 33.6959 20.6436C33.6959 20.6436 28.3505 15.4955 21.4879 14.8331L20.9627 13.9075L20.0293 12.3333L19.4792 13.2589L18.5706 14.8331C11.7068 15.5081 6.36261 20.631 6.36261 20.6436C6.36261 20.6436 11.8624 25.9302 18.8693 26.4805L20.0293 28.6667ZM18.1276 25.0801C12.807 24.3057 7.51011 20.6436 7.52255 20.6436C7.52255 20.6436 12.5681 17.1578 17.7567 16.27L16.9328 17.7068L17.5775 18.9813L19.3236 16.0823L19.3236 16.0823C19.5626 16.0697 19.8015 16.0571 20.0293 16.0571C20.2605 16.0593 20.4917 16.0677 20.7225 16.0823L22.4325 18.9813L23.0897 17.6451L22.3006 16.2574C27.4905 17.1326 32.5348 20.5428 32.5348 20.631C32.5348 20.7317 27.2391 24.3057 21.9185 25.0675L24.5122 20.1436L23.8078 18.907L22.4562 21.4558L20.603 25.1935C20.4002 25.2061 20.2085 25.2061 20.0057 25.2061H20.0056H20.0056C19.8015 25.2061 19.5986 25.2061 19.3958 25.1935L16.873 20.1688L16.8855 20.1562L16.2383 18.9322L15.5339 20.1688L18.1276 25.0801Z" fill="white"/>
</svg>
